<svg width="48" height="48" viewBox="0 0 48 48" fill="none" xmlns="http://www.w3.org/2000/svg">
<rect width="48" height="48" fill="#F8F8F8"/>
<path fill-rule="evenodd" clip-rule="evenodd" d="M31.6462 32.6874C36.48 26.0656 38.0043 20.9708 36.3356 17.6029C34.8086 14.5224 28.4921 12.6594 17.414 12C16.6088 11.9972 16.8129 12.776 17.5945 13.0412C22.5852 14.7362 26.8623 17.6057 29.1862 20.31C30.6203 22.2424 30.7494 25.048 30.5744 26.6889C30.2607 29.7263 29.922 31.8267 28.8586 34.7365C28.6573 35.2848 29.3306 35.8471 29.8442 35.1613C30.4364 34.373 31.0181 33.577 31.5892 32.7735L31.6448 32.6874H31.6462ZM22.6907 34.2311C26.0016 29.4556 26.9942 25.7976 25.7476 23.4029C24.637 21.2678 20.3293 19.9948 12.837 19.5839C11.8569 19.5298 11.707 20.2364 12.5496 20.564C16.0397 21.9217 18.6343 23.4612 20.3015 25.2201C20.3154 25.2382 20.3293 25.2562 20.346 25.2743C21.6176 26.6736 21.7314 28.9031 21.6176 30.1886C21.4704 32.0322 21.29 33.4093 20.8082 35.053C20.582 35.8165 21.2053 36.3885 21.7064 35.6721C22.0385 35.1946 22.3666 34.7142 22.6907 34.2311Z" fill="#242424"/>
</svg>
